<svg width="34" height="34" viewBox="0 0 34 34" fill="none" xmlns="http://www.w3.org/2000/svg">
<path d="M13.5469 3.1875H4.51562C3.78212 3.1875 3.1875 3.78212 3.1875 4.51562V13.5469C3.1875 14.2804 3.78212 14.875 4.51562 14.875H13.5469C14.2804 14.875 14.875 14.2804 14.875 13.5469V4.51562C14.875 3.78212 14.2804 3.1875 13.5469 3.1875Z" stroke="#00AF00" stroke-width="2" stroke-linecap="round" stroke-linejoin="round"/>
<path d="M29.4844 3.1875H20.4531C19.7196 3.1875 19.125 3.78212 19.125 4.51562V13.5469C19.125 14.2804 19.7196 14.875 20.4531 14.875H29.4844C30.2179 14.875 30.8125 14.2804 30.8125 13.5469V4.51562C30.8125 3.78212 30.2179 3.1875 29.4844 3.1875Z" stroke="#00AF00" stroke-width="2" stroke-linecap="round" stroke-linejoin="round"/>
<path d="M13.5469 19.125H4.51562C3.78212 19.125 3.1875 19.7196 3.1875 20.4531V29.4844C3.1875 30.2179 3.78212 30.8125 4.51562 30.8125H13.5469C14.2804 30.8125 14.875 30.2179 14.875 29.4844V20.4531C14.875 19.7196 14.2804 19.125 13.5469 19.125Z" stroke="#00AF00" stroke-width="2" stroke-linecap="round" stroke-linejoin="round"/>
<path d="M29.4844 19.125H20.4531C19.7196 19.125 19.125 19.7196 19.125 20.4531V29.4844C19.125 30.2179 19.7196 30.8125 20.4531 30.8125H29.4844C30.2179 30.8125 30.8125 30.2179 30.8125 29.4844V20.4531C30.8125 19.7196 30.2179 19.125 29.4844 19.125Z" stroke="#00AF00" stroke-width="2" stroke-linecap="round" stroke-linejoin="round"/>
</svg>
