<svg version="1.1" id="Layer_1" xmlns="http://www.w3.org/2000/svg" xmlns:xlink="http://www.w3.org/1999/xlink" x="0px" y="0px"
	 width="100%" viewBox="0 0 509 490" enable-background="new 0 0 509 490" xml:space="preserve">
<path fill="#000000" opacity="1.000000" stroke="none" 
	d="
M286.000000,491.000000 
	C190.666687,491.000000 95.833382,491.000000 1.000051,491.000000 
	C1.000034,327.666718 1.000034,164.333450 1.000017,1.000139 
	C170.666565,1.000092 340.333130,1.000092 509.999756,1.000046 
	C509.999847,164.333191 509.999847,327.666382 509.999939,490.999786 
	C435.500000,491.000000 361.000000,491.000000 286.000000,491.000000 
M149.953217,254.390625 
	C149.953217,254.390625 149.584106,254.559464 149.115784,255.313278 
	C149.115784,267.610931 149.115784,279.908569 149.115784,292.206207 
	C149.260590,292.203003 149.405396,292.199768 149.550201,292.196564 
	C149.550201,279.629181 149.550201,267.061798 150.172241,255.004578 
	C150.336960,254.674225 150.501678,254.343872 150.666397,254.013519 
	C150.413116,254.046860 150.159851,254.080200 150.318542,253.235123 
	C150.318542,244.691101 150.318542,236.147095 150.318542,227.603073 
	C149.886032,227.601593 149.453522,227.600098 149.021011,227.598618 
	C149.021011,234.944183 148.968307,242.290451 149.065811,249.634720 
	C149.085129,251.090042 149.681076,252.537704 149.953217,254.390625 
M208.945389,231.087448 
	C208.945389,197.022079 208.945389,162.956696 208.945389,128.891327 
	C208.297562,129.320084 208.042969,129.769516 208.043381,130.218735 
	C208.075562,164.153030 208.127853,198.087326 208.054459,232.948715 
	C208.054459,280.693634 208.054459,328.438538 208.054459,376.183441 
	C208.780548,375.253204 208.899796,374.304871 208.902420,373.356201 
	C208.943420,358.540466 209.006836,343.724701 208.991119,328.908966 
	C208.956863,296.613129 208.880554,264.317322 208.945389,231.087448 
M192.996796,316.500000 
	C192.996796,255.010956 192.996796,193.521927 192.996796,132.032883 
	C192.760040,132.033615 192.523270,132.034348 192.286514,132.035080 
	C192.286514,210.319199 192.286514,288.603302 192.286514,366.887421 
	C192.522949,366.888306 192.759369,366.889160 192.995804,366.890045 
	C192.995804,350.426697 192.995804,333.963348 192.996796,316.500000 
M266.994812,357.500000 
	C266.994812,382.056152 266.994812,406.612305 266.994812,431.168457 
	C267.214508,431.166229 267.434235,431.164001 267.653931,431.161743 
	C267.653931,355.804230 267.653931,280.446686 267.653931,205.089157 
	C267.434235,205.089355 267.214508,205.089554 266.994812,205.089752 
	C266.994812,255.559830 266.994812,306.029907 266.994812,357.500000 
M284.000885,219.510071 
	C284.000885,282.652771 284.000885,345.795502 284.000885,408.938202 
	C284.241913,408.937469 284.482971,408.936737 284.723999,408.936005 
	C284.723999,341.335724 284.723999,273.735474 284.723999,206.135208 
	C284.483215,206.131119 284.242432,206.127029 284.001648,206.122955 
	C284.001648,210.254059 284.001648,214.385162 284.000885,219.510071 
M247.002594,338.500000 
	C247.002594,369.311493 247.002594,400.123016 247.002594,430.934509 
	C247.234924,430.932953 247.467255,430.931366 247.699585,430.929810 
	C247.699585,363.667206 247.699585,296.404602 247.699585,229.141983 
	C247.467255,229.141800 247.234940,229.141602 247.002609,229.141418 
	C247.002609,265.260956 247.002609,301.380463 247.002594,338.500000 
M229.989456,315.500000 
	C229.989456,344.229431 229.989456,372.958862 229.989456,401.688293 
	C230.237518,401.686218 230.485596,401.684143 230.733658,401.682037 
	C230.733658,338.836853 230.733658,275.991669 230.733658,213.146500 
	C230.485580,213.146194 230.237518,213.145874 229.989441,213.145569 
	C229.989441,246.930374 229.989441,280.715179 229.989456,315.500000 
M322.001221,279.500000 
	C322.001221,307.896759 322.001221,336.293549 322.001221,364.690308 
	C322.241577,364.688202 322.481934,364.686096 322.722290,364.683990 
	C322.722290,312.169281 322.722290,259.654541 322.722290,207.139832 
	C322.481934,207.139252 322.241577,207.138657 322.001221,207.138077 
	C322.001221,230.925385 322.001221,254.712692 322.001221,279.500000 
M364.998657,254.500061 
	C364.998657,276.951599 364.998657,299.403107 364.998657,321.854645 
	C365.248993,321.853424 365.499359,321.852203 365.749695,321.850983 
	C365.749695,292.283630 365.749695,262.716278 365.749695,233.148941 
	C365.499268,233.145538 365.248810,233.142136 364.998383,233.138733 
	C364.998383,239.925873 364.998383,246.713028 364.998657,254.500061 
M305.003387,330.590332 
	C305.003387,327.833832 305.003387,325.077362 305.003387,322.320862 
	C304.781799,322.337891 304.560211,322.354950 304.338623,322.371979 
	C304.338623,344.207550 304.338623,366.043121 304.338623,387.878693 
	C304.560333,387.877960 304.782074,387.877228 305.003784,387.876465 
	C305.003784,369.105499 305.003784,350.334503 305.003387,330.590332 
M365.427185,230.486557 
	C365.427185,230.486557 365.521332,230.433685 365.427185,230.486557 
z"/>
<path fill="#464646" opacity="1.000000" stroke="none" 
	d="
M192.996307,317.000000 
	C192.995804,333.963348 192.995804,350.426697 192.995804,366.890045 
	C192.759369,366.889160 192.522949,366.888306 192.286514,366.887421 
	C192.286514,288.603302 192.286514,210.319199 192.286514,132.035080 
	C192.523270,132.034348 192.760040,132.033615 192.996796,132.032883 
	C192.996796,193.521927 192.996796,255.010956 192.996307,317.000000 
z"/>
<path fill="#545454" opacity="1.000000" stroke="none" 
	d="
M266.994812,357.000000 
	C266.994812,306.029907 266.994812,255.559830 266.994812,205.089752 
	C267.214508,205.089554 267.434235,205.089355 267.653931,205.089157 
	C267.653931,280.446686 267.653931,355.804230 267.653931,431.161743 
	C267.434235,431.164001 267.214508,431.166229 266.994812,431.168457 
	C266.994812,406.612305 266.994812,382.056152 266.994812,357.000000 
z"/>
<path fill="#363636" opacity="1.000000" stroke="none" 
	d="
M284.001282,219.013168 
	C284.001648,214.385162 284.001648,210.254059 284.001648,206.122955 
	C284.242432,206.127029 284.483215,206.131119 284.723999,206.135208 
	C284.723999,273.735474 284.723999,341.335724 284.723999,408.936005 
	C284.482971,408.936737 284.241913,408.937469 284.000885,408.938202 
	C284.000885,345.795502 284.000885,282.652771 284.001282,219.013168 
z"/>
<path fill="#3B3B3B" opacity="1.000000" stroke="none" 
	d="
M247.002594,338.000000 
	C247.002609,301.380463 247.002609,265.260956 247.002609,229.141418 
	C247.234940,229.141602 247.467255,229.141800 247.699585,229.141983 
	C247.699585,296.404602 247.699585,363.667206 247.699585,430.929810 
	C247.467255,430.931366 247.234924,430.932953 247.002594,430.934509 
	C247.002594,400.123016 247.002594,369.311493 247.002594,338.000000 
z"/>
<path fill="#535353" opacity="1.000000" stroke="none" 
	d="
M229.989441,315.000000 
	C229.989441,280.715179 229.989441,246.930374 229.989441,213.145569 
	C230.237518,213.145874 230.485580,213.146194 230.733658,213.146500 
	C230.733658,275.991669 230.733658,338.836853 230.733658,401.682037 
	C230.485596,401.684143 230.237518,401.686218 229.989456,401.688293 
	C229.989456,372.958862 229.989456,344.229431 229.989441,315.000000 
z"/>
<path fill="#2A2A2A" opacity="1.000000" stroke="none" 
	d="
M322.001221,279.000000 
	C322.001221,254.712692 322.001221,230.925385 322.001221,207.138077 
	C322.241577,207.138657 322.481934,207.139252 322.722290,207.139832 
	C322.722290,259.654541 322.722290,312.169281 322.722290,364.683990 
	C322.481934,364.686096 322.241577,364.688202 322.001221,364.690308 
	C322.001221,336.293549 322.001221,307.896759 322.001221,279.000000 
z"/>
<path fill="#535353" opacity="1.000000" stroke="none" 
	d="
M208.821442,232.021515 
	C208.880554,264.317322 208.956863,296.613129 208.991119,328.908966 
	C209.006836,343.724701 208.943420,358.540466 208.902420,373.356201 
	C208.899796,374.304871 208.780548,375.253204 208.054459,376.183441 
	C208.054459,328.438538 208.054459,280.693634 208.276978,232.482925 
	C208.499512,232.017136 208.821442,232.021515 208.821442,232.021515 
z"/>
<path fill="#4B4B4B" opacity="1.000000" stroke="none" 
	d="
M208.883423,231.554474 
	C208.821442,232.021515 208.499512,232.017136 208.339050,232.019379 
	C208.127853,198.087326 208.075562,164.153030 208.043381,130.218735 
	C208.042969,129.769516 208.297562,129.320084 208.945389,128.891327 
	C208.945389,162.956696 208.945389,197.022079 208.883423,231.554474 
z"/>
<path fill="#0B0B0B" opacity="1.000000" stroke="none" 
	d="
M364.998535,254.000122 
	C364.998383,246.713028 364.998383,239.925873 364.998383,233.138733 
	C365.248810,233.142136 365.499268,233.145538 365.749695,233.148941 
	C365.749695,262.716278 365.749695,292.283630 365.749695,321.850983 
	C365.499359,321.852203 365.248993,321.853424 364.998657,321.854645 
	C364.998657,299.403107 364.998657,276.951599 364.998535,254.000122 
z"/>
<path fill="#5B5B5B" opacity="1.000000" stroke="none" 
	d="
M305.003601,331.076935 
	C305.003784,350.334503 305.003784,369.105499 305.003784,387.876465 
	C304.782074,387.877228 304.560333,387.877960 304.338623,387.878693 
	C304.338623,366.043121 304.338623,344.207550 304.338623,322.371979 
	C304.560211,322.354950 304.781799,322.337891 305.003387,322.320862 
	C305.003387,325.077362 305.003387,327.833832 305.003601,331.076935 
z"/>
<path fill="#EDEDED" opacity="1.000000" stroke="none" 
	d="
M149.550201,254.494400 
	C149.550201,267.061798 149.550201,279.629181 149.550201,292.196564 
	C149.405396,292.199768 149.260590,292.203003 149.115784,292.206207 
	C149.115784,279.908569 149.115784,267.610931 149.349884,254.922256 
	C149.583984,254.531235 149.550201,254.494400 149.550201,254.494400 
z"/>
<path fill="#EDEDED" opacity="1.000000" stroke="none" 
	d="
M150.011108,253.988907 
	C149.681076,252.537704 149.085129,251.090042 149.065811,249.634720 
	C148.968307,242.290451 149.021011,234.944183 149.021011,227.598618 
	C149.453522,227.600098 149.886032,227.601593 150.318542,227.603073 
	C150.318542,236.147095 150.318542,244.691101 150.138184,253.642731 
	C149.957840,254.050339 150.011108,253.988907 150.011108,253.988907 
z"/>
<path fill="#0B0B0B" opacity="1.000000" stroke="none" 
	d="
M365.474243,230.460114 
	C365.521332,230.433685 365.427185,230.486557 365.474243,230.460114 
z"/>
<path fill="#EDEDED" opacity="1.000000" stroke="none" 
	d="
M149.584045,254.545349 
	C149.584106,254.559464 149.953217,254.390625 149.982162,254.189758 
	C150.011108,253.988907 149.957840,254.050339 149.932205,254.081940 
	C150.159851,254.080200 150.413116,254.046860 150.666397,254.013519 
	C150.501678,254.343872 150.336960,254.674225 149.861221,254.749481 
	C149.550201,254.494400 149.583984,254.531235 149.584045,254.545349 
z"/>
</svg>